<svg xmlns="http://www.w3.org/2000/svg" xmlns:xlink="http://www.w3.org/1999/xlink" width="28.5" height="23.631" viewBox="0 0 28.5 23.631">
  <defs>
    <clipPath id="clip-path">
      <rect id="Rectangle_228" data-name="Rectangle 228" width="28.5" height="23.631" fill="none"/>
    </clipPath>
  </defs>
  <g id="Group_2689" data-name="Group 2689" transform="translate(0 0.001)">
    <g id="Group_2598" data-name="Group 2598" transform="translate(0 -0.001)" clip-path="url(#clip-path)">
      <path id="Path_29780" data-name="Path 29780" d="M17.131,23.627a.921.921,0,0,1-.441-.132c-.7-.378-1.393-.739-2.128-1.121l-.547-.284a.527.527,0,0,1,.266-.982.523.523,0,0,1,.213.045l2.131,1.111s0-2.65,0-2.65c0-2.391,0-4.867,0-7.3a.228.228,0,0,0-.135-.257C14.026,10.772,11.532,9.465,9.121,8.2L6.873,7.022V9.036c0,2.595,0,5.28-.006,7.92a.273.273,0,0,0,.17.3c1.451.748,2.908,1.512,4.316,2.251l1.384.726a.527.527,0,0,1-.247.992.516.516,0,0,1-.228-.053l-.11-.055-.914-.48c-.61-.321-1.239-.652-1.862-.97a1.063,1.063,0,0,0-.466-.112c-1.236-.006-2.442-.007-3.459-.007H3.562a.521.521,0,1,1,0-1.041H7.179c-.251-.135-.522-.277-.793-.4a.9.9,0,0,1-.58-.945c.014-1.4.012-2.829.011-4.215V11.255H2.591a.537.537,0,0,1-.556-.481.528.528,0,0,1,.481-.57l.044,0,.043,0H5.791V7.522H.529a.529.529,0,1,1,0-1.059H5.791a1.066,1.066,0,0,1,.753-1.016c.688-.333,1.365-.692,2.115-1.093l.448-.238H5.4a.532.532,0,0,1-.029-1.063h.8c1.391,0,3.036,0,4.691-.007a1.161,1.161,0,0,0,.521-.128c1.7-.879,3.511-1.824,5.368-2.808a.842.842,0,0,1,.4-.111.888.888,0,0,1,.423.117c3.418,1.8,6.941,3.641,10.467,5.48a.841.841,0,0,1,.455.754c-.008,3.619-.008,7.293,0,10.919a.769.769,0,0,1-.459.773c-3.833,2-7.249,3.788-10.435,5.466a.937.937,0,0,1-.441.122h-.015Zm3.007-12.77c-.78.411-1.519.8-2.277,1.184a.265.265,0,0,0-.186.285c.008,2.511.008,5.046.008,7.5,0,0,0,2.424,0,2.44l3.341-1.748c2.073-1.084,4.191-2.193,6.282-3.28a.2.2,0,0,0,.135-.221c-.007-2.721-.007-5.47-.006-8.128V7.036l-1.08.566c-.431.226-.871.456-1.308.676a.241.241,0,0,0-.162.265c.006.66.006,1.309.006,1.939s0,1.271.006,1.907a.732.732,0,0,1-.474.739c-.583.279-1.182.572-1.761.856l-1,.489a.983.983,0,0,1-.412.116h0c-.194,0-.507-.092-.508-.7V10.539Zm3.49-1.83c-.623.324-1.211.632-1.8.95a.186.186,0,0,0-.017.055c-.006.917-.006,1.843-.005,2.822v.371l.334-.165c.541-.267,1.052-.519,1.576-.761a.182.182,0,0,0,.129-.205c-.009-.764-.008-1.518-.007-2.248V8.919ZM9.958,7.452c2.324,1.219,4.711,2.471,7.064,3.7a.412.412,0,0,0,.169.047c.853-.436,1.7-.878,2.586-1.346l.338-.177-.534-.267c-3.046-1.525-6.2-3.1-9.3-4.644a.129.129,0,0,0-.039-.006h-.012a.269.269,0,0,0-.114.025c-.794.4-1.6.828-2.383,1.239l-.252.132Zm3.791-2.146c2.149,1.07,4.585,2.282,6.9,3.469a1.325,1.325,0,0,0,.6.144,1.36,1.36,0,0,0,.725-.212c.335-.2.682-.391,1.034-.559l.156-.077L14.652,3.779a.524.524,0,0,1,.465-.94L17.2,3.884c2.194,1.1,4.449,2.238,6.658,3.369a1.051,1.051,0,0,0,.482.143.836.836,0,0,0,.422-.135c.546-.322,1.093-.6,1.673-.9l.395-.2-.979-.514c-2.826-1.482-5.741-3.01-8.613-4.5a.134.134,0,0,0-.045-.007V1.009l-.005.122a.392.392,0,0,0-.167.037c-.995.512-2,1.041-2.987,1.556l-1.239.65c-.368.192-.737.386-1.111.584l-.309.162q1.188.594,2.378,1.186" transform="translate(0 0)" fill="#fff"/>
    </g>
  </g>
</svg>
