<svg xmlns="http://www.w3.org/2000/svg" width="23.541" height="23.541" viewBox="0 0 23.541 23.541">
  <g id="Group_2690" data-name="Group 2690" transform="translate(-11860 736.506)">
    <path id="Path_29819" data-name="Path 29819" d="M99.268,17.5a11.784,11.784,0,1,0,8.319,3.451A11.771,11.771,0,0,0,99.268,17.5Zm0,21.972a10.213,10.213,0,1,1,7.21-2.991,10.2,10.2,0,0,1-7.21,2.991Z" transform="translate(11772.503 -754.006)" fill="#fff"/>
    <path id="Path_29820" data-name="Path 29820" d="M215.482,315.072a.785.785,0,0,0-1.02.433,5.493,5.493,0,0,1-10.187,0,.785.785,0,0,0-1.455.589,7.062,7.062,0,0,0,13.1,0,.785.785,0,0,0-.435-1.022Z" transform="translate(11662.403 -1038.181)" fill="#fff"/>
    <path id="Path_29821" data-name="Path 29821" d="M210.785,160.64a.785.785,0,0,0,.785-.785.785.785,0,1,1,1.569,0,.785.785,0,1,0,1.569,0,2.354,2.354,0,0,0-4.708,0,.785.785,0,0,0,.785.785Z" transform="translate(11655.493 -887.729)" fill="#fff"/>
    <path id="Path_29822" data-name="Path 29822" d="M385.785,160.64a.785.785,0,0,0,.785-.785.785.785,0,1,1,1.569,0,.785.785,0,1,0,1.569,0,2.354,2.354,0,0,0-4.708,0,.785.785,0,0,0,.785.785Z" transform="translate(11488.34 -887.729)" fill="#fff"/>
  </g>
</svg>
