<svg xmlns="http://www.w3.org/2000/svg" xmlns:xlink="http://www.w3.org/1999/xlink" width="20.641" height="29.148" viewBox="0 0 20.641 29.148">
  <defs>
    <clipPath id="clip-path">
      <rect id="Rectangle_448" data-name="Rectangle 448" width="20.641" height="29.148" fill="#fff"/>
    </clipPath>
  </defs>
  <g id="Group_2688" data-name="Group 2688" clip-path="url(#clip-path)">
    <path id="Path_29817" data-name="Path 29817" d="M10.332,24.487,8.745,28.1c-.085.194-.167.389-.256.581a.61.61,0,0,1-1.13.143q-.979-1.2-1.93-2.42a.707.707,0,0,0-.633-.319c-1.132.019-2.265.011-3.4.006-.7,0-.938-.382-.645-1.021q1.422-3.1,2.853-6.2c.064-.14.128-.281.185-.4a8.846,8.846,0,0,1-.962-.69,2.126,2.126,0,0,1-.7-1.584,1.756,1.756,0,0,0-.933-1.669,2.407,2.407,0,0,1-.869-3.3A1.747,1.747,0,0,0,.316,9.4a2.415,2.415,0,0,1,.93-3.311,1.653,1.653,0,0,0,.872-1.484,2.441,2.441,0,0,1,2.507-2.49,1.6,1.6,0,0,0,1.449-.852A2.441,2.441,0,0,1,9.454.339a1.66,1.66,0,0,0,1.755,0,2.445,2.445,0,0,1,3.375.945,1.579,1.579,0,0,0,1.457.838,2.437,2.437,0,0,1,2.485,2.5,1.527,1.527,0,0,0,.78,1.4,2.466,2.466,0,0,1,.94,3.545,1.5,1.5,0,0,0,.01,1.528,2.472,2.472,0,0,1-.962,3.539,1.488,1.488,0,0,0-.761,1.2,2.542,2.542,0,0,1-1.662,2.6l1.272,2.758q.888,1.924,1.773,3.849c.318.7.086,1.053-.682,1.055-1.118,0-2.236.011-3.354-.007a.671.671,0,0,0-.6.295c-.617.792-1.252,1.57-1.876,2.357-.472.6-.958.53-1.268-.179q-.806-1.844-1.609-3.69c-.048-.111-.108-.217-.193-.385m9.1-16.12a1.366,1.366,0,0,0-.729-1.3,2.6,2.6,0,0,1-1.377-2.408A1.278,1.278,0,0,0,16,3.31a5.134,5.134,0,0,1-.632-.044,2.642,2.642,0,0,1-1.835-1.375,1.221,1.221,0,0,0-1.748-.5A2.691,2.691,0,0,1,8.9,1.425a1.229,1.229,0,0,0-1.832.527A2.567,2.567,0,0,1,4.7,3.313,1.283,1.283,0,0,0,3.315,4.691,2.582,2.582,0,0,1,1.994,7.045a1.252,1.252,0,0,0-.535,1.929,2.624,2.624,0,0,1-.019,2.737,1.24,1.24,0,0,0,.483,1.848A2.649,2.649,0,0,1,3.318,16a1.26,1.26,0,0,0,1.343,1.326A2.63,2.63,0,0,1,7.07,18.705a1.257,1.257,0,0,0,1.881.5,2.632,2.632,0,0,1,2.738,0,1.252,1.252,0,0,0,1.882-.49,2.615,2.615,0,0,1,2.4-1.383,1.253,1.253,0,0,0,1.349-1.354,2.6,2.6,0,0,1,1.347-2.384,1.275,1.275,0,0,0,.506-1.942,2.575,2.575,0,0,1,0-2.662,4.639,4.639,0,0,0,.251-.621M5.138,18.463,2.171,24.891c1.078,0,2.092.011,3.105-.006a.9.9,0,0,1,.8.387c.353.46.719.91,1.082,1.362.188.234.382.464.6.722l3.137-7.177a1.294,1.294,0,0,0-1.275.056,2.53,2.53,0,0,1-3.645-.975,5.46,5.46,0,0,0-.83-.8m13.373,6.428-2.9-6.3a1.354,1.354,0,0,0-1.005.755,2.538,2.538,0,0,1-2.322,1.3.5.5,0,0,0-.366.23c-.276.572-.537,1.153-.761,1.746a.938.938,0,0,0,0,.628c.356.876.75,1.737,1.131,2.6.214.487.427.974.66,1.508.546-.681,1.074-1.307,1.562-1.963a1.153,1.153,0,0,1,1.073-.52c.957.036,1.916.011,2.935.011" transform="translate(0 -0.001)" fill="#fff"/>
    <path id="Path_29818" data-name="Path 29818" d="M71.054,75.857,66.1,83.61a.764.764,0,0,1-1.155.156L60.978,80.2a.6.6,0,0,1-.047-.849l.008-.009a.6.6,0,0,1,.853-.046l3.352,3.019a.243.243,0,0,0,.367-.049L70.031,75.2a.6.6,0,0,1,.825-.186l.01.006a.6.6,0,0,1,.188.834" transform="translate(-55.617 -68.562)" fill="#fff"/>
  </g>
</svg>
